<svg width="500" height="100" xmlns="http://www.w3.org/2000/svg">

 <g>
  <title>background</title>
  <rect fill="none" id="canvas_background" height="102" width="502" y="-1" x="-1"/>
 </g>
 <g>
  <title>Layer 1</title>
  <path id="svg_1" d="m280.85,31.96c-17.733,0 -35.68,11.03 -35.68,32.13c0,0.553 0.019,1.115 0.057,1.79l0.059,0.895l-0.751,0.492c-1.447,0.955 -2.75,1.675 -3.873,2.113c-2.538,1.166 -6.122,2.491 -11.329,2.491c-8.591,0 -11.645,-5.64 -11.645,-10.456c0,-6.166 3.698,-13.596 14.11,-13.596c0.118,0 0.245,0.009 0.367,0.009c0.579,0 1.294,0.053 2.163,0.201c0.72,0.105 1.47,0.272 2.268,0.482c2.219,0.395 3.259,-0.676 4.075,-2.29c0.012,-0.025 0.026,-0.052 0.038,-0.078c0.045,-0.096 0.102,-0.192 0.141,-0.289c0.005,-0.009 0.014,-0.026 0.019,-0.026c1.123,-2.211 2.474,-4.281 3.854,-6.096c0.005,-0.001 0.014,-0.026 0.026,-0.026c0,-0.001 0.009,-0.001 0.009,-0.019c0.172,-0.237 0.351,-0.456 0.527,-0.675c1.17,-1.754 0.788,-3.447 -0.77,-4.071c-3.875,-1.438 -9.389,-3.01 -16.16,-2.981c-19.619,0.053 -33.32,13.394 -33.32,32.561c0,2.491 0.294,4.885 0.869,7.113l0.355,1.378l-1.341,0.474c-2.228,0.596 -3.606,0.771 -4.541,0.781c-1.749,0 -3.074,-0.501 -3.911,-1.492c-0.821,-0.955 -1.12,-2.264 -0.868,-3.852l4.32,-30.718c0.017,-0.175 0.047,-0.351 0.069,-0.544l0.009,-0.017c0.409,-2.649 -1.276,-3.324 -3.101,-2.614c-0.008,0 -0.021,0.008 -0.043,0.008c-0.263,0.115 -0.541,0.221 -0.83,0.325c-0.294,0.105 -0.561,0.202 -0.64,0.219l-0.012,0c-2.202,0.738 -4.943,1.324 -8.412,1.324c-2.457,0 -4.461,-0.464 -6.07,-1.235c-0.005,0 -0.023,0 -0.023,0c-0.021,-0.019 -0.052,-0.026 -0.069,-0.045c-0.105,-0.052 -0.216,-0.105 -0.317,-0.167c-1.372,-0.588 -2.899,-0.042 -3.323,1.536l-5.01,35.92l-0.837,0.325c-0.666,0.271 -1.334,0.482 -2,0.647c0,0 -4.728,1.711 -6.916,-1.062c-0.856,-1.087 -1.242,-2.524 -0.993,-4.446l2.689,-18.561c0.72,-5.105 -0.404,-9.676 -3.188,-12.885c-2.821,-3.256 -7.127,-4.975 -12.452,-4.975c-5.649,0 -11.28,2.271 -15.456,6.219l-3.214,3.053l3.569,-25.551c0.023,-0.142 0.04,-0.29 0.062,-0.439c0.465,-3.491 -1.626,-4.342 -3.469,-4.307c-0.334,0.009 -0.614,0.009 -0.873,0l-15.09,0c-2.057,0.113 -2.895,1.174 -3.245,2.402l-3.64,25.807l-1.421,9.438c-1.957,11.912 -9.369,20.2 -20.13,22.05c-11.11,1.922 -19.16,-5.148 -19.16,-15.351c0,-11.963 8.725,-19.998 21.72,-19.998c2.798,0 5.68,0.367 8.337,1.035c0.014,0 0.014,0 0.031,0c2.746,0.543 3.736,-0.983 4.136,-2.553l1.456,-10.28c0.469,-3.353 -1.541,-4.15 -3.32,-4.51c-0.294,-0.062 -0.544,-0.123 -0.776,-0.184c-4.473,-0.956 -8.856,-1.431 -13.08,-1.431c-25.04,0 -42.543,16.736 -42.543,40.71c0,20.02 11.913,31.499 32.675,31.499c2.662,0 5.548,-0.21 8.579,-0.631l1.525,-0.202c1.828,-0.289 5.056,-0.868 8.435,-1.798l0.092,-0.027l0.429,-0.123c1.044,-0.299 2.028,-0.623 2.939,-0.946l1.01,-0.378c0.158,-0.062 0.311,-0.132 0.473,-0.193l0.329,-0.139l0.43,-0.186c18.351,-7.622 26.789,-23.701 29.16,-27.18c1.12,-1.647 7.07,-11.262 11.06,-6.579c1.155,1.353 1.5,2.896 0.983,6.606l-2.701,16.509c-0.579,3.929 0.184,7.322 2.201,9.797c2.155,2.622 5.741,4.132 10.378,4.368l0.083,0.009c0.407,0.001 0.828,0.035 1.259,0.035c5.087,0 11.06,-0.807 14.579,-1.982c2.482,-0.728 4.654,-1.535 6.438,-2.403l1.054,-0.518l0.779,0.868c2.181,2.421 5.574,3.763 10.07,3.983l0.233,0.008l0.101,0l0.368,0.019c0.181,0.007 0.369,0.025 0.566,0.025c4.829,0 10.464,-0.729 14.06,-1.816c0.198,-0.052 0.391,-0.113 0.588,-0.166c4.755,-1.394 7.32,-2.808 8.381,-3.465l0,-0.018c0.807,-0.438 1.663,-0.939 2.51,-1.474l0.123,0.123c4.464,4.456 10.96,6.815 18.793,6.815c3.092,0 6.315,-0.299 9.583,-0.887l1.043,-0.174c0.628,-0.142 1.496,-0.334 2.527,-0.579c0.464,-0.115 0.974,-0.247 1.508,-0.396c0.28,-0.07 0.588,-0.157 0.882,-0.245c0.457,-0.124 0.916,-0.263 1.395,-0.395c3.145,-0.948 5.829,-1.983 7.969,-3.08c1.536,-0.779 2.948,-1.604 4.188,-2.412l1.075,-0.691l0.89,0.92c4.912,5.115 12.404,7.938 21.1,7.938c17.198,0 35.469,-11.237 35.469,-32.03c-0.005,-14.66 -10.894,-24.51 -27.1,-24.51m5.118,27.902c-0.943,7.06 -6.589,12.376 -12.315,11.613c-4.598,-0.613 -7.269,-5.087 -6.501,-10.875c0.938,-7.05 6.583,-12.379 12.308,-11.614c4.603,0.615 7.279,5.097 6.508,10.876"/>
  <path id="svg_2" d="m181.71,32.46c6.487,-1.43 10.877,-6.5 9.812,-11.323c-0.224,-1.019 -0.675,-1.948 -1.307,-2.765c-2.355,-3.035 -7.237,-4.518 -12.351,-3.386c-2.698,0.589 -5.03,1.816 -6.762,3.386c-2.426,2.211 -3.668,5.115 -3.044,7.93c1.066,4.825 7.174,7.579 13.652,6.158"/>
  <path id="svg_3" d="m456.06,34.31c5.927,-1.315 9.938,-5.947 8.965,-10.368c-0.196,-0.921 -0.614,-1.772 -1.184,-2.517c-2.162,-2.78 -6.627,-4.141 -11.302,-3.105c-2.47,0.544 -4.604,1.666 -6.186,3.105c-2.219,2.02 -3.354,4.676 -2.784,7.245c0.975,4.412 6.561,6.938 12.491,5.64"/>
  <path id="svg_4" d="m468.39,75.75c-0.429,-1.693 -3.306,-1.421 -4.232,-1.421c-1.749,0.001 -3.068,-0.491 -3.916,-1.482c-0.825,-0.957 -1.117,-2.254 -0.868,-3.86l4.315,-30.709c0.031,-0.184 0.049,-0.359 0.075,-0.543c0.429,-2.659 -1.259,-3.351 -3.092,-2.641l-0.005,0c-0.141,0.062 -0.609,0.236 -0.987,0.386c-0.24,0.088 -0.452,0.158 -0.513,0.175c-0.008,0 -0.008,0 -0.008,0c-2.202,0.736 -3.369,1.325 -6.838,1.325c-2.456,0 -5.075,-0.465 -6.685,-1.229c-0.005,-0.008 -0.021,-0.008 -0.04,-0.026l-0.004,0c-0.137,-0.078 -0.276,-0.148 -0.417,-0.21c-1.346,-0.562 -2.847,-0.027 -3.285,1.518c0,0 -0.044,0.255 -0.136,0.719l-0.005,0c0,0.009 0,0.019 -0.003,0.025c-0.645,4.457 -1.746,11.765 -2.812,16.03c-2.566,10.229 -8.01,17.457 -22.01,19.403c-7.17,0.992 -14.639,-2.351 -16.15,-7.648c-0.127,-0.483 -0.157,-0.764 -0.157,-0.764s5.51,2.176 11.11,2.132c9.92,-0.088 23.666,-5.649 22.254,-20.991c-0.997,-10.807 -9.943,-16.386 -23.12,-15.174c-19.14,1.771 -31.673,17.227 -29.958,35.866c0.048,0.51 0.057,1.01 0.165,1.501c0.387,1.666 0.922,3.228 1.581,4.666c-2.681,1.28 -12.277,4.43 -20.803,-7.561l-1.101,-1.685l1.903,-0.641c11.701,-3.929 17.504,-10.982 17.504,-22.18c0,-12.647 -11.172,-19.07 -32.504,-19.07c-4.728,0 -10.132,0.307 -14.946,0.755c-0.189,0.008 -0.383,0.034 -0.562,0.043c-1.474,0.141 -2.886,0.289 -4.193,0.447c-0.487,0.054 -0.96,0.114 -1.416,0.176c-1.742,0.229 -2.676,0.553 -3,2.878l-0.25,1.823l-7.842,56.13l0,0.001c0,0.009 0,0.017 0,0.035c-0.337,2.113 0.696,3.588 3,3.596l1.402,0l11.571,0c0.285,-0.018 0.587,-0.035 0.911,-0.035c2.299,-0.008 3.706,-1.49 4.02,-3.641c0.026,-0.21 0.057,-0.394 0.088,-0.553l2.324,-16.674c0,0 1.28,-0.07 1.758,-0.124c0.813,-0.087 1.751,-0.165 1.751,-0.165l0.482,1.139c7.05,16.816 11.807,19.991 20.793,21.255c12.09,0.877 23.346,-5.895 25.715,-7.369c6.184,5.185 14.464,7.404 21.04,7.404c12.701,0 21.529,-5.097 27.06,-9.676c0.315,1.701 0.789,3.167 1.452,4.456c2.073,4.03 6.23,5.149 10.728,4.947c8.915,-0.42 19.831,-8.955 18.857,-12.779m-57.819,-32.428c3.736,-0.72 7.566,0.148 8.466,2.965c0.635,2 0.113,5.104 -2.895,7.191c-5.938,4.124 -15.355,1.729 -15.355,1.729c0.172,-1.193 1.518,-9.727 9.784,-11.885m-66.11,9.674c-0.852,0.044 -1.64,0.07 -2.377,-0.018l-1.496,-0.192l2.29,-16.325l1.157,-0.219c0.697,-0.122 1.786,-0.289 3.045,-0.341c7.1,-0.299 11.925,2.357 11.925,7.104c0,5.895 -5.808,9.623 -14.544,9.991"/>
 </g>
</svg>